<svg width="135" height="19" viewBox="0 0 135 19" fill="none" xmlns="http://www.w3.org/2000/svg">
<path d="M7.584 18.336C6.224 18.336 4.904 18.168 3.624 17.832C2.344 17.496 1.304 17.048 0.504 16.488L2.064 12.984C2.816 13.48 3.688 13.88 4.68 14.184C5.672 14.488 6.648 14.64 7.608 14.64C9.432 14.64 10.344 14.184 10.344 13.272C10.344 12.792 10.08 12.44 9.552 12.216C9.04 11.976 8.208 11.728 7.056 11.472C5.792 11.2 4.736 10.912 3.888 10.608C3.04 10.288 2.312 9.784 1.704 9.096C1.096 8.408 0.792 7.48 0.792 6.312C0.792 5.288 1.072 4.368 1.632 3.552C2.192 2.72 3.024 2.064 4.128 1.584C5.248 1.104 6.616 0.863999 8.232 0.863999C9.336 0.863999 10.424 0.991999 11.496 1.248C12.568 1.488 13.512 1.848 14.328 2.328L12.864 5.856C11.264 4.992 9.712 4.56 8.208 4.56C7.264 4.56 6.576 4.704 6.144 4.992C5.712 5.264 5.496 5.624 5.496 6.072C5.496 6.52 5.752 6.856 6.264 7.08C6.776 7.304 7.6 7.536 8.736 7.776C10.016 8.048 11.072 8.344 11.904 8.664C12.752 8.968 13.48 9.464 14.088 10.152C14.712 10.824 15.024 11.744 15.024 12.912C15.024 13.92 14.744 14.832 14.184 15.648C13.624 16.464 12.784 17.12 11.664 17.616C10.544 18.096 9.184 18.336 7.584 18.336ZM17.2191 1.2H21.9711V14.232H29.9871V18H17.2191V1.2ZM52.1479 18.288L50.2519 16.608C49.4679 17.168 48.5959 17.6 47.6359 17.904C46.6759 18.192 45.6679 18.336 44.6119 18.336C43.3479 18.336 42.2039 18.136 41.1799 17.736C40.1559 17.32 39.3559 16.752 38.7799 16.032C38.2039 15.312 37.9159 14.504 37.9159 13.608C37.9159 12.552 38.1959 11.632 38.7559 10.848C39.3159 10.048 40.2039 9.32 41.4199 8.664C40.3479 7.576 39.8119 6.448 39.8119 5.28C39.8119 4.432 40.0439 3.68 40.5079 3.024C40.9719 2.368 41.6279 1.864 42.4759 1.512C43.3399 1.144 44.3319 0.959999 45.4519 0.959999C47.0039 0.959999 48.2519 1.328 49.1959 2.064C50.1559 2.784 50.6359 3.76 50.6359 4.992C50.6359 5.856 50.3799 6.624 49.8679 7.296C49.3719 7.968 48.5879 8.6 47.5159 9.192L49.9639 11.376C50.2839 10.672 50.5319 9.872 50.7079 8.976L54.3799 10.08C54.0599 11.52 53.5399 12.792 52.8199 13.896L54.5959 15.48L52.1479 18.288ZM45.4519 3.96C44.9879 3.96 44.6199 4.08 44.3479 4.32C44.0919 4.544 43.9639 4.84 43.9639 5.208C43.9639 5.48 44.0359 5.744 44.1799 6C44.3399 6.24 44.6279 6.56 45.0439 6.96C45.6839 6.624 46.1319 6.312 46.3879 6.024C46.6599 5.72 46.7959 5.408 46.7959 5.088C46.7959 4.736 46.6759 4.464 46.4359 4.272C46.2119 4.064 45.8839 3.96 45.4519 3.96ZM44.9479 14.856C45.8759 14.856 46.7319 14.624 47.5159 14.16L43.8919 10.944C43.3639 11.264 42.9799 11.6 42.7399 11.952C42.4999 12.288 42.3799 12.672 42.3799 13.104C42.3799 13.616 42.6119 14.04 43.0759 14.376C43.5399 14.696 44.1639 14.856 44.9479 14.856ZM69.7871 18.336C68.4271 18.336 67.1071 18.168 65.8271 17.832C64.5471 17.496 63.5071 17.048 62.7071 16.488L64.2671 12.984C65.0191 13.48 65.8911 13.88 66.8831 14.184C67.8751 14.488 68.8511 14.64 69.8111 14.64C71.6351 14.64 72.5471 14.184 72.5471 13.272C72.5471 12.792 72.2831 12.44 71.7551 12.216C71.2431 11.976 70.4111 11.728 69.2591 11.472C67.9951 11.2 66.9391 10.912 66.0911 10.608C65.2431 10.288 64.5151 9.784 63.9071 9.096C63.2991 8.408 62.9951 7.48 62.9951 6.312C62.9951 5.288 63.2751 4.368 63.8351 3.552C64.3951 2.72 65.2271 2.064 66.3311 1.584C67.4511 1.104 68.8191 0.863999 70.4351 0.863999C71.5391 0.863999 72.6271 0.991999 73.6991 1.248C74.7711 1.488 75.7151 1.848 76.5311 2.328L75.0671 5.856C73.4671 4.992 71.9151 4.56 70.4111 4.56C69.4671 4.56 68.7791 4.704 68.3471 4.992C67.9151 5.264 67.6991 5.624 67.6991 6.072C67.6991 6.52 67.9551 6.856 68.4671 7.08C68.9791 7.304 69.8031 7.536 70.9391 7.776C72.2191 8.048 73.2751 8.344 74.1071 8.664C74.9551 8.968 75.6831 9.464 76.2911 10.152C76.9151 10.824 77.2271 11.744 77.2271 12.912C77.2271 13.92 76.9471 14.832 76.3871 15.648C75.8271 16.464 74.9871 17.12 73.8671 17.616C72.7471 18.096 71.3871 18.336 69.7871 18.336ZM95.4062 1.2V18H90.6542V11.448H84.1742V18H79.4222V1.2H84.1742V7.512H90.6542V1.2H95.4062ZM107.23 18.336C105.454 18.336 103.854 17.96 102.43 17.208C101.022 16.456 99.9101 15.416 99.0941 14.088C98.2941 12.76 97.8941 11.264 97.8941 9.6C97.8941 7.936 98.2941 6.44 99.0941 5.112C99.9101 3.784 101.022 2.744 102.43 1.992C103.854 1.24 105.454 0.863999 107.23 0.863999C109.006 0.863999 110.598 1.24 112.006 1.992C113.43 2.744 114.542 3.784 115.342 5.112C116.158 6.44 116.566 7.936 116.566 9.6C116.566 11.264 116.158 12.76 115.342 14.088C114.542 15.416 113.43 16.456 112.006 17.208C110.598 17.96 109.006 18.336 107.23 18.336ZM107.23 14.4C108.078 14.4 108.846 14.2 109.534 13.8C110.222 13.4 110.766 12.84 111.166 12.12C111.566 11.384 111.766 10.544 111.766 9.6C111.766 8.656 111.566 7.824 111.166 7.104C110.766 6.368 110.222 5.8 109.534 5.4C108.846 5 108.078 4.8 107.23 4.8C106.382 4.8 105.614 5 104.926 5.4C104.238 5.8 103.694 6.368 103.294 7.104C102.894 7.824 102.694 8.656 102.694 9.6C102.694 10.544 102.894 11.384 103.294 12.12C103.694 12.84 104.238 13.4 104.926 13.8C105.614 14.2 106.382 14.4 107.23 14.4ZM126.735 1.2C128.255 1.2 129.575 1.456 130.695 1.968C131.815 2.464 132.679 3.184 133.287 4.128C133.895 5.056 134.199 6.152 134.199 7.416C134.199 8.68 133.895 9.776 133.287 10.704C132.679 11.632 131.815 12.352 130.695 12.864C129.575 13.36 128.255 13.608 126.735 13.608H123.807V18H119.055V1.2H126.735ZM126.447 9.864C127.423 9.864 128.159 9.656 128.655 9.24C129.151 8.808 129.399 8.2 129.399 7.416C129.399 6.632 129.151 6.024 128.655 5.592C128.159 5.16 127.423 4.944 126.447 4.944H123.807V9.864H126.447Z" fill="#4B5563"/>
</svg>
